<svg width="2078" height="1653" viewBox="0 0 2078 1653" fill="none" xmlns="http://www.w3.org/2000/svg">
<path d="M665 196H211L9 372.5V1196.5L211 1381.5H665L984.5 1633.5V19.5L665 196Z" fill="#A7C7E7"/>
<path d="M1085.5 1633.5V19.5L1455 196H1901L2069 372.5V1196.5L1901 1381.5H1455L1085.5 1633.5Z" fill="#A7C7E7"/>
<path d="M665 196H211L9 372.5V1196.5L211 1381.5H665L984.5 1633.5V19.5L665 196Z" stroke="#41C0E0" stroke-width="18"/>
<path d="M1085.5 1633.5V19.5L1455 196H1901L2069 372.5V1196.5L1901 1381.5H1455L1085.5 1633.5Z" stroke="#41C0E0" stroke-width="18"/>
<g filter="url(#filter0_i_429_26)">
<path d="M994 826L556.5 557L10 826V1204.5L212 1389.5H674.5L994 1633V826Z" fill="#AEE1D9"/>
<path d="M1433.5 191L1089.5 15V826L1537.5 1016.5L2067 826V376L1903.5 191H1433.5Z" fill="#AEE1D9"/>
</g>
<path d="M994 826L556.5 557L10 826V1204.5L212 1389.5H674.5L994 1633V826Z" stroke="#41C0E0" stroke-width="18"/>
<path d="M1433.5 191L1089.5 15V826L1537.5 1016.5L2067 826V376L1903.5 191H1433.5Z" stroke="#41C0E0" stroke-width="18"/>
<defs>
<filter id="filter0_i_429_26" x="1" y="0.285889" width="2079" height="1654.89" filterUnits="userSpaceOnUse" color-interpolation-filters="sRGB">
<feFlood flood-opacity="0" result="BackgroundImageFix"/>
<feBlend mode="normal" in="SourceGraphic" in2="BackgroundImageFix" result="shape"/>
<feColorMatrix in="SourceAlpha" type="matrix" values="0 0 0 0 0 0 0 0 0 0 0 0 0 0 0 0 0 0 127 0" result="hardAlpha"/>
<feOffset dx="54" dy="79"/>
<feGaussianBlur stdDeviation="2"/>
<feComposite in2="hardAlpha" operator="arithmetic" k2="-1" k3="1"/>
<feColorMatrix type="matrix" values="0 0 0 0 0 0 0 0 0 0 0 0 0 0 0 0 0 0 0.25 0"/>
<feBlend mode="normal" in2="shape" result="effect1_innerShadow_429_26"/>
</filter>
</defs>
</svg>
