<svg width="1338" height="1295" viewBox="0 0 1338 1295" fill="none" xmlns="http://www.w3.org/2000/svg">
<rect width="1338" height="1295" rx="120" fill="#FBE0E0"/>
<path d="M502.267 272.733L450.533 324.467L450.8 510.333L450.933 696.333L502.4 747.933L554 799.667H671.333H788.667L840.267 748.067L892 696.333V510.467V324.6L840.4 272.867L788.8 221H671.333H554L502.267 272.733ZM799.067 314.067L833.333 348.467V424.733C833.333 493.8 833.067 501 831.2 501C830 501 824.8 498.733 819.467 496.067C810.933 491.667 803.467 484.6 741.333 422.733C703.467 385.133 672 354.333 671.333 354.333C670.533 354.333 639.6 384.733 602.533 421.8L535.2 489.133L522.267 486.067L509.333 483V416.2V349.533L543.733 314.733L578 280.067L671.333 279.8L764.8 279.667L799.067 314.067ZM714.667 479L756.667 521L714 563.667L671.467 606.2L634.133 569.267C613.6 549 594.4 529.8 591.467 526.6L586.133 520.867L628.133 478.867C651.067 455.8 670.533 437 671.333 437C672.133 437 691.6 455.933 714.667 479ZM527.867 551C536.533 555.4 549.333 567.4 608.667 626.467L671.467 689L738.267 622.067L805.2 555.133L816.933 558.867C823.333 561 829.333 562.867 830.267 563C832.933 563.8 833.6 576.867 833.067 625.4L832.667 673L798.667 707L764.667 741H671.333H578L543.6 706.6L509.067 672.067L509.467 608.867C509.6 574.067 510 545.267 510.267 544.733C510.8 543.8 520.933 547.4 527.867 551Z" fill="black"/>
<path d="M807.467 954.467C788.667 957.267 772.933 969.134 764.267 987.4C759.467 997.4 759.333 998.067 759.333 1013C759.467 1030.87 762 1039.13 770.8 1050.33C781.733 1064.07 796 1071.53 814 1072.6C832.533 1073.8 847.067 1068.6 860.267 1055.93C873.067 1043.67 879.867 1025.4 878.134 1007.93C875.2 979.267 856.134 958.867 828 954.2C819.733 952.867 818.4 952.867 807.467 954.467ZM833.333 971.134C854.667 977.934 867.2 1006.73 858.534 1029.53C845.467 1064.6 796.4 1067.27 780 1033.8C772.4 1018.33 773.333 1001.93 782.667 988.067C794.133 970.867 813.067 964.6 833.333 971.134Z" fill="black"/>
<path d="M304 1013.67V1071.67H346.667H389.333V1064.33V1057H354.667H320V1038.33V1019.67H350.8H381.467L381.067 1012.87L380.667 1006.07L350.4 1006.33L320 1006.47V988.467V970.333L354.267 970.067L388.533 969.667L388.667 963V956.333L346.4 955.933L304 955.667V1013.67Z" fill="black"/>
<path d="M449.333 1013.67V1071.8L457.067 1071.4L464.667 1071V1027.27C464.667 1003.27 465.067 983.8 465.467 983.933C466 984.2 477.733 998.467 491.467 1015.67C522.533 1054.33 534.933 1069.4 536.667 1070.73C537.333 1071.27 540.4 1071.53 543.333 1071.4L548.667 1071L549.067 1013.27L549.333 955.667H541.333H533.333V998.333C533.333 1021.8 532.933 1041 532.4 1041C531.733 1040.87 526.4 1034.47 520.267 1026.6C514.133 1018.73 498.8 999.533 486.267 984.067L463.333 955.667H456.4H449.333V1013.67Z" fill="black"/>
<path d="M601.733 957.267C603.333 961.4 646.933 1063.4 648.667 1067.4C650.667 1071.8 650.8 1071.93 658.267 1071.4C663.067 1071 666.133 1070.2 666.933 1068.87C668.4 1066.07 681.067 1037.13 699.333 993.934L715.733 955.667H706.8H698L690.933 973.4C675.2 1012.33 659.333 1050.33 658.667 1050.33C658 1050.33 639.867 1006.73 625.067 970.067L619.333 955.667H610.133C603.467 955.667 601.2 956.067 601.733 957.267Z" fill="black"/>
<path d="M938.933 1013.27L939.333 1071L947.067 1071.4L954.667 1071.8V1050.33V1029H970.4H986.267L998.8 1046.47C1018.27 1073.67 1016.27 1071.8 1026.13 1071.53C1031.33 1071.4 1034.67 1070.73 1034.67 1069.8C1034.53 1069 1027.73 1059 1019.47 1047.67L1004.27 1027L1011.07 1023.93C1024.67 1017.8 1032 1007 1032 992.733C1032 988.067 1031.33 982.067 1030.53 979.133C1028.67 972.2 1020.13 963.267 1011.6 959.533C1005.07 956.467 1003.07 956.333 971.6 955.933L938.667 955.533L938.933 1013.27ZM1004 973.267C1010.67 976.6 1016 985.133 1016 992.2C1016 999.4 1011.2 1007 1004.27 1010.6C998.4 1013.8 996.533 1014.07 976.667 1014.47L955.333 1015L954.933 992.6L954.667 970.333H976.4C996.267 970.333 998.667 970.6 1004 973.267Z" fill="black"/>
</svg>
